<svg width="95.99999999999999" height="95.99999999999999" xmlns="http://www.w3.org/2000/svg">
 <title/>

 <g>
  <title>background</title>
  <rect fill="none" id="canvas_background" height="402" width="582" y="-1" x="-1"/>
 </g>
 <g>
  <title>Layer 1</title>
  <path fill="#00bf00" id="svg_2" d="m58.3945,32.1563l-15.3984,18.4687l-5.3906,-6.4629a5.995,5.995 0 1 0 -9.211,7.6758l9.9961,12a5.9914,5.9914 0 0 0 9.211,0.0059l20.0039,-24a5.9988,5.9988 0 1 0 -9.211,-7.6875z"/>
  <path fill="#00bf00" id="svg_3" d="m48,0a48,48 0 1 0 48,48a48.0512,48.0512 0 0 0 -48,-48zm0,84a36,36 0 1 1 36,-36a36.0393,36.0393 0 0 1 -36,36z"/>
 </g>
</svg>