<svg width="48" height="48" xmlns="http://www.w3.org/2000/svg">

 <g>
  <title>background</title>
  <rect fill="none" id="canvas_background" height="402" width="582" y="-1" x="-1"/>
 </g>
 <g>
  <title>Layer 1</title>
  <path id="svg_1" fill="#7f0000" d="m24,0c-13.255,0 -24,10.745 -24,24s10.745,24 24,24s24,-10.745 24,-24s-10.745,-24 -24,-24zm-20,24c0,-11.046 8.954,-20 20,-20c4.85,0 9.293,1.727 12.755,4.597l-28.158,28.158c-2.87,-3.462 -4.597,-7.905 -4.597,-12.755zm20,20c-4.756,0 -9.119,-1.667 -12.552,-4.439l28.112,-28.111c2.773,3.431 4.44,7.794 4.44,12.55c0,11.046 -8.954,20 -20,20z"/>
 </g>
</svg>