<svg xmlns="http://www.w3.org/2000/svg" width="77.58" height="31.035" viewBox="0 0 77.58 31.035">
  <path id="Path_101" data-name="Path 101" d="M76.471,8.263,67.687,7.009A44.328,44.328,0,0,0,62.71,4.371,43.543,43.543,0,0,0,44.7.492H43.17A43.951,43.951,0,0,0,22.184,5.844L17.751,8.262A30.552,30.552,0,0,0,2.966,12.27,5.9,5.9,0,0,0,0,17.381v7.678a1.293,1.293,0,0,0,1.293,1.293H5.635a7.729,7.729,0,0,0,14.589,0H54.769a7.729,7.729,0,0,0,14.589,0h.464a1.3,1.3,0,0,0,.481-.092l4.188-1.68a4.89,4.89,0,0,0,3.089-4.563V9.543A1.294,1.294,0,0,0,76.471,8.263ZM18,24.8a5.173,5.173,0,1,1,.1-1.034A5.172,5.172,0,0,1,18,24.8Zm23.379-1.034H20.688a7.758,7.758,0,1,0-15.516,0H2.586V17.381A3.308,3.308,0,0,1,4.25,14.515,27.956,27.956,0,0,1,18.1,10.836H41.376Zm0-15.516h-18.2l.249-.136A41.343,41.343,0,0,1,41.376,3.135Zm2.586-5.172h.732A40.923,40.923,0,0,1,59.908,5.993L57.65,8.25H43.962ZM67.131,24.8a5.173,5.173,0,1,1,.1-1.034A5.172,5.172,0,0,1,67.131,24.8Zm7.863-12.672H71.115v2.586h3.879v5.3a2.314,2.314,0,0,1-1.464,2.16l-3.709,1.49c0-.119-.015-.237-.023-.356s-.011-.258-.023-.388-.039-.259-.06-.388-.036-.259-.062-.376-.064-.248-.1-.371-.06-.247-.1-.367-.085-.235-.129-.353-.084-.239-.129-.356-.106-.222-.16-.332-.107-.23-.168-.341-.129-.206-.188-.309-.129-.221-.2-.327-.143-.19-.214-.286-.152-.208-.234-.308-.16-.177-.24-.259-.169-.191-.258-.281-.177-.162-.266-.242-.185-.175-.284-.259-.2-.148-.3-.222-.2-.152-.3-.221-.22-.129-.331-.2-.2-.129-.307-.185-.235-.114-.354-.171-.212-.107-.322-.154-.259-.1-.388-.142-.214-.083-.324-.118c-.147-.045-.3-.078-.449-.115-.1-.023-.193-.054-.292-.075-.159-.033-.322-.051-.484-.074-.1-.013-.187-.034-.283-.043a7.859,7.859,0,0,0-.789-.04,7.766,7.766,0,0,0-7.758,7.758H43.962V10.836H58.185a1.291,1.291,0,0,0,.914-.379L62.452,7.1a41.463,41.463,0,0,1,4.1,2.242,1.3,1.3,0,0,0,.5.184l7.942,1.134Zm0,0" transform="translate(0 -0.492)" fill="#129347"/>
</svg>
