<svg xmlns="http://www.w3.org/2000/svg" xmlns:xlink="http://www.w3.org/1999/xlink" width="125" height="125" viewBox="0 0 125 125">
  <defs>
    <filter id="Ellipse_11" x="0" y="0" width="125" height="125" filterUnits="userSpaceOnUse">
      <feOffset dx="-6" dy="6" input="SourceAlpha"/>
      <feGaussianBlur stdDeviation="8" result="blur"/>
      <feFlood flood-opacity="0.353"/>
      <feComposite operator="in" in2="blur"/>
      <feComposite in="SourceGraphic"/>
    </filter>
  </defs>
  <g id="Group_15" data-name="Group 15" transform="translate(30 17.503)">
    <g transform="matrix(1, 0, 0, 1, -30, -17.5)" filter="url(#Ellipse_11)">
      <circle id="Ellipse_11-2" data-name="Ellipse 11" cx="38.5" cy="38.5" r="38.5" transform="translate(30 18)" fill="#a73f3f"/>
    </g>
    <g id="chat" transform="translate(15.11 20.05)">
      <path id="Path_47" data-name="Path 47" d="M20.076,41.428v-4.9a.721.721,0,0,0-.728-.689H17.2a2.9,2.9,0,0,1-2.89-2.894V14.966a2.9,2.9,0,0,1,2.89-2.9H14.89a2.9,2.9,0,0,0-2.89,2.9V32.942a2.9,2.9,0,0,0,2.89,2.894h2.15a.721.721,0,0,1,.728.689v6.961Zm0,0" transform="translate(-11.527 -10.686)" fill="#843434"/>
      <path id="Path_48" data-name="Path 48" d="M0,4.35V22.327A4.282,4.282,0,0,0,4.275,26.6H5.768v7.809a.676.676,0,0,0,.391.631.648.648,0,0,0,.274.061.682.682,0,0,0,.456-.173L16.241,26.6H37.335a4.314,4.314,0,0,0,4.312-4.278V19.959a6.112,6.112,0,0,0,1.961-.552v5.862a7,7,0,0,1-7.014,6.988H30.8a4.474,4.474,0,1,0,0,1.384h5.791a8.383,8.383,0,0,0,8.4-8.373V18.561a6.8,6.8,0,0,0,2.554-5.223,6.638,6.638,0,0,0-5.9-6.62V4.35A4.316,4.316,0,0,0,37.335.07H4.275A4.284,4.284,0,0,0,0,4.35ZM26.393,36.059a3.079,3.079,0,1,1,3.079-3.079A3.079,3.079,0,0,1,26.393,36.059Zm19.791-22.72a5.305,5.305,0,0,1-4.536,5.225V8.114A5.305,5.305,0,0,1,46.183,13.339ZM40.263,4.35V22.327a2.928,2.928,0,0,1-2.928,2.894H15.978a.646.646,0,0,0-.442.173L7.153,32.87V25.909a.721.721,0,0,0-.728-.689H4.275a2.9,2.9,0,0,1-2.89-2.894V4.35a2.9,2.9,0,0,1,2.89-2.9h33.06A2.93,2.93,0,0,1,40.263,4.35Zm0,0" transform="translate(0 -0.07)" fill="#fff"/>
      <g id="Group_14" data-name="Group 14" transform="translate(6.922 5.411)">
        <path id="Path_49" data-name="Path 49" d="M60.663,52.763h4.777a.69.69,0,0,0,.671-.709v-1.99a3.045,3.045,0,0,0-.891-2.178h.007l-.05-.049-.059-.057-.046-.04c-.023-.02-.045-.041-.069-.06l-.044-.034c-.025-.02-.05-.041-.076-.059l-.047-.033c-.026-.018-.05-.036-.077-.054l-.038-.024c-.03-.019-.059-.039-.089-.057l-.021-.011c-.036-.022-.073-.042-.11-.062l-.015-.008c-.039-.021-.079-.041-.119-.06l-.014-.006c-.041-.019-.081-.037-.123-.054l-.01,0a2.865,2.865,0,0,0-.272-.1l-.029-.008c-.038-.012-.077-.022-.116-.032h0c-.047-.012-.1-.023-.143-.032l-.037-.006c-.037-.007-.074-.014-.112-.019l-.059-.007L63.358,47l-.094-.007-.059,0c-.051,0-.09,0-.141,0A3.073,3.073,0,0,0,60,50.064v1.99a.686.686,0,0,0,.667.709Zm.718-2.7a1.687,1.687,0,0,1,1.684-1.7,1.642,1.642,0,0,1,1.182.5,1.664,1.664,0,0,1,.479,1.2v1.314H61.381Zm0,0" transform="translate(-59.996 -46.983)" fill="#fff"/>
        <path id="Path_50" data-name="Path 50" d="M247,50.057v1.99a.757.757,0,0,0,.749.709h4.777a.717.717,0,0,0,.7-.709v-1.99a3.062,3.062,0,0,0-.909-2.178A3.125,3.125,0,0,0,247,50.057Zm4.845,0v1.314h-3.461V50.057a1.731,1.731,0,0,1,2.945-1.2A1.7,1.7,0,0,1,251.845,50.057Zm0,0" transform="translate(-225.426 -46.976)" fill="#fff"/>
        <path id="Path_51" data-name="Path 51" d="M133.626,118.067a.688.688,0,0,0-.692.687,5.469,5.469,0,0,0,10.938,0,.688.688,0,0,0-.692-.687Zm7.665,3.575a4.082,4.082,0,0,1-6.914-2.19h8.053A4.113,4.113,0,0,1,141.29,121.641Zm0,0" transform="translate(-124.519 -109.865)" fill="#fff"/>
      </g>
    </g>
  </g>
</svg>
