<svg id="correct" xmlns="http://www.w3.org/2000/svg" width="19.733" height="19.757" viewBox="0 0 19.733 19.757">
  <g id="Group_998" data-name="Group 998">
    <path id="Path_1328" data-name="Path 1328" d="M34.69,28.71a.7.7,0,0,0-.986.986l3.214,3.214a.681.681,0,0,0,.493.2h.034a.777.777,0,0,0,.51-.255L46,23.217a.7.7,0,1,0-1.071-.9L37.36,31.38Z" transform="translate(-28.9 -19.412)" fill="#00d357"/>
    <path id="Path_1329" data-name="Path 1329" d="M21.526,7.935a9.885,9.885,0,1,0,3.129,3.129.691.691,0,0,0-1.173.731,8.466,8.466,0,1,1-2.687-2.687.691.691,0,0,0,.731-1.173Z" transform="translate(-6.45 -6.426)" fill="#00d357"/>
  </g>
</svg>
