<svg xmlns="http://www.w3.org/2000/svg" width="31.676" height="39.001" viewBox="0 0 31.676 39.001">
  <g id="delete" transform="translate(0.003 0.001)">
    <path id="Path_107" data-name="Path 107" d="M223.311,154.7a.913.913,0,0,0-.913.913v17.263a.913.913,0,0,0,1.827,0V155.616A.913.913,0,0,0,223.311,154.7Zm0,0" transform="translate(-202.088 -140.574)"/>
    <path id="Path_108" data-name="Path 108" d="M105.311,154.7a.913.913,0,0,0-.913.913v17.263a.913.913,0,0,0,1.827,0V155.616A.913.913,0,0,0,105.311,154.7Zm0,0" transform="translate(-94.866 -140.574)"/>
    <path id="Path_109" data-name="Path 109" d="M2.591,11.61v22.5a5.039,5.039,0,0,0,1.34,3.475A4.5,4.5,0,0,0,7.194,39H24.476a4.5,4.5,0,0,0,3.264-1.411,5.039,5.039,0,0,0,1.34-3.475V11.61a3.489,3.489,0,0,0-.9-6.861H23.507V3.606A3.588,3.588,0,0,0,19.89,0H11.78A3.588,3.588,0,0,0,8.162,3.606V4.748H3.486a3.489,3.489,0,0,0-.9,6.861ZM24.476,37.173H7.194a2.893,2.893,0,0,1-2.777-3.06V11.69H27.252V34.113a2.893,2.893,0,0,1-2.777,3.06ZM9.989,3.606a1.76,1.76,0,0,1,1.79-1.781H19.89a1.76,1.76,0,0,1,1.79,1.781V4.748H9.989Zm-6.5,2.968h24.7a1.644,1.644,0,0,1,0,3.288H3.486a1.644,1.644,0,1,1,0-3.288Zm0,0" transform="translate(0 0)"/>
    <path id="Path_110" data-name="Path 110" d="M164.311,154.7a.913.913,0,0,0-.913.913v17.263a.913.913,0,0,0,1.827,0V155.616A.913.913,0,0,0,164.311,154.7Zm0,0" transform="translate(-148.477 -140.574)"/>
  </g>
</svg>
