<svg xmlns="http://www.w3.org/2000/svg" width="50.358" height="47.435" viewBox="0 0 50.358 47.435">
  <g id="fuel-station" transform="translate(0 -9.85)">
    <g id="Group_109" data-name="Group 109" transform="translate(0 9.85)">
      <g id="Group_108" data-name="Group 108">
        <path id="Path_97" data-name="Path 97" d="M48.281,50.01h-.7a2.064,2.064,0,0,0,0-.3V12.329A2.077,2.077,0,0,0,45.5,10.252H25.209a2.077,2.077,0,0,0-2.077,2.077V27.757a8.058,8.058,0,0,0-4.747,3.276,8.153,8.153,0,0,0-1.163,6.812c.854,3.276.961,7.619-.807,9.423a3.691,3.691,0,0,1-3.727.7,4.142,4.142,0,0,1-3.121-2.374C7.68,41.239,12.392,33,12.4,32.967c.285-.427,6.848-10.622.142-16.615C12.273,16.067,5.805,9.231.809,9.9a.927.927,0,1,0,.237,1.84,6.408,6.408,0,0,1,3.454.771l-1.329,1.6a2.077,2.077,0,0,0,.312,2.921l.044.035,4.462,3.56a2.053,2.053,0,0,0,1.294.451H9.46a2.065,2.065,0,0,0,1.389-.771l1.294-1.626c4.011,5.127-1.187,13.292-1.317,13.423-.214.368-5.2,9.091-2.967,14.242a5.934,5.934,0,0,0,4.427,3.37,8.022,8.022,0,0,0,1.828.225,4.83,4.83,0,0,0,3.56-1.412c2.374-2.48,2.184-7.536,1.258-11.12a6.254,6.254,0,0,1,4.178-7.774V49.713a2.063,2.063,0,0,0,0,.3h-.593a2.077,2.077,0,0,0-2.124,2.029c0,.016,0,.032,0,.048v3.121a2.077,2.077,0,0,0,2.076,2.077H48.281a2.077,2.077,0,0,0,2.077-2.077V52.087A2.077,2.077,0,0,0,48.281,50.01Zm-37.5-32.435L9.46,19.2a.3.3,0,0,1-.2.107.285.285,0,0,1-.214-.059l-4.462-3.56a.3.3,0,0,1,0-.415L5.9,13.634a.3.3,0,0,1,.2-.107.285.285,0,0,1,.214.059l4.462,3.56a.285.285,0,0,1,.107.2A.3.3,0,0,1,10.778,17.575Zm14.111-5.246a.3.3,0,0,1,.3-.3H45.527a.3.3,0,0,1,.3.3V49.713a.3.3,0,0,1-.3.3H25.209a.3.3,0,0,1-.32-.272c0-.008,0-.016,0-.025V12.329ZM48.625,55.208a.3.3,0,0,1-.3.3H22.515a.3.3,0,0,1-.3-.3V52.087a.3.3,0,0,1,.3-.3H48.281a.3.3,0,0,1,.344.3Z" transform="translate(0 -9.85)" fill="#129347"/>
      </g>
    </g>
    <g id="Group_111" data-name="Group 111" transform="translate(27.132 14.857)">
      <g id="Group_110" data-name="Group 110">
        <path id="Path_98" data-name="Path 98" d="M197.264,43.6h-12.3a2.077,2.077,0,0,0-2.077,2.077V57.981a2.077,2.077,0,0,0,2.077,2.077h12.3a2.077,2.077,0,0,0,2.077-2.077V45.674A2.077,2.077,0,0,0,197.264,43.6Zm.3,14.4a.3.3,0,0,1-.3.285h-12.3a.3.3,0,0,1-.3-.3V45.674a.3.3,0,0,1,.3-.3h12.3a.3.3,0,0,1,.3.3Z" transform="translate(-182.892 -43.597)" fill="#129347"/>
      </g>
    </g>
    <g id="Group_113" data-name="Group 113" transform="translate(29.731 34.676)">
      <g id="Group_112" data-name="Group 112">
        <path id="Path_99" data-name="Path 99" d="M210.8,177.2H201.3a.89.89,0,0,0,0,1.78H210.8a.89.89,0,0,0,0-1.78Z" transform="translate(-200.412 -177.198)" fill="#129347"/>
      </g>
    </g>
  </g>
</svg>
