<svg xmlns="http://www.w3.org/2000/svg" width="20.43" height="20.429" viewBox="0 0 20.43 20.429">
  <g id="instagram" transform="translate(20.43) rotate(90)">
    <path id="Path_40" data-name="Path 40" d="M31.61,23.88H25.522a1.765,1.765,0,0,0-1.763,1.763v6.089a1.765,1.765,0,0,0,1.763,1.763H31.61a1.765,1.765,0,0,0,1.763-1.763V25.643A1.765,1.765,0,0,0,31.61,23.88Zm-3.044,7.972a3.165,3.165,0,1,1,3.165-3.165A3.169,3.169,0,0,1,28.566,31.852Zm3.267-5.676a.749.749,0,1,1,.749-.749A.75.75,0,0,1,31.833,26.177Z" transform="translate(-18.351 -18.445)" fill="#fff"/>
    <path id="Path_41" data-name="Path 41" d="M38.677,36.971A1.828,1.828,0,1,0,40.5,38.8,1.83,1.83,0,0,0,38.677,36.971Z" transform="translate(-28.462 -28.556)" fill="#fff"/>
    <path id="Path_42" data-name="Path 42" d="M10.215,0A10.215,10.215,0,1,0,20.429,10.215,10.215,10.215,0,0,0,10.215,0Zm6.144,13.287a3.1,3.1,0,0,1-3.1,3.1H7.17a3.1,3.1,0,0,1-3.1-3.1V7.2a3.1,3.1,0,0,1,3.1-3.1h6.089a3.1,3.1,0,0,1,3.1,3.1Z" fill="#fff"/>
  </g>
</svg>
