<svg id="instagram" xmlns="http://www.w3.org/2000/svg" width="42.097" height="42.097" viewBox="0 0 42.097 42.097">
  <path id="Path_40" data-name="Path 40" d="M39.938,23.88H27.391a3.636,3.636,0,0,0-3.632,3.632V40.059a3.636,3.636,0,0,0,3.632,3.632H39.938a3.637,3.637,0,0,0,3.632-3.632V27.512A3.636,3.636,0,0,0,39.938,23.88ZM33.664,40.307a6.522,6.522,0,1,1,6.522-6.522A6.529,6.529,0,0,1,33.664,40.307Zm6.732-11.7a1.543,1.543,0,1,1,1.543-1.543A1.545,1.545,0,0,1,40.4,28.612Z" transform="translate(-12.616 -12.68)" fill="#fff"/>
  <path id="Path_41" data-name="Path 41" d="M40.615,36.971a3.766,3.766,0,1,0,3.766,3.765A3.771,3.771,0,0,0,40.615,36.971Z" transform="translate(-19.567 -19.631)" fill="#fff"/>
  <path id="Path_42" data-name="Path 42" d="M21.048,0A21.048,21.048,0,1,0,42.1,21.048,21.049,21.049,0,0,0,21.048,0ZM33.709,27.379a6.394,6.394,0,0,1-6.388,6.388H14.775a6.4,6.4,0,0,1-6.388-6.388V14.832a6.4,6.4,0,0,1,6.388-6.388H27.321a6.4,6.4,0,0,1,6.388,6.388Z" fill="#fff"/>
</svg>
