<svg id="light-bulb" xmlns="http://www.w3.org/2000/svg" width="57.009" height="59.404" viewBox="0 0 57.009 59.404">
  <path id="XMLID_49_" d="M45.076,51.912v1.736a2.753,2.753,0,0,1-2.335,2.726l-.428,1.577A1.962,1.962,0,0,1,40.419,59.4H36.178a1.962,1.962,0,0,1-1.895-1.455l-.416-1.577a2.765,2.765,0,0,1-2.347-2.738V51.9A1.669,1.669,0,0,1,33.2,50.225H43.4A1.688,1.688,0,0,1,45.076,51.912Zm7.859-23.4a14.561,14.561,0,0,1-4.107,10.157,13.42,13.42,0,0,0-3.594,7.285A2.42,2.42,0,0,1,42.839,48H33.757a2.4,2.4,0,0,1-2.384-2.029,13.569,13.569,0,0,0-3.618-7.309,14.633,14.633,0,1,1,25.18-10.145ZM39.954,19.655A1.651,1.651,0,0,0,38.3,18,10.571,10.571,0,0,0,27.744,28.565a1.65,1.65,0,1,0,3.3,0A7.269,7.269,0,0,1,38.3,21.3,1.643,1.643,0,0,0,39.954,19.655ZM38.3,9.082a1.651,1.651,0,0,0,1.65-1.65V1.65a1.65,1.65,0,0,0-3.3,0V7.432A1.651,1.651,0,0,0,38.3,9.082ZM18.882,28.5a1.651,1.651,0,0,0-1.65-1.65H11.45a1.65,1.65,0,1,0,0,3.3h5.782A1.643,1.643,0,0,0,18.882,28.5Zm46.277-1.65H59.377a1.65,1.65,0,0,0,0,3.3h5.782a1.65,1.65,0,0,0,0-3.3ZM22.243,42.243l-4.095,4.095a1.647,1.647,0,0,0,2.322,2.335l4.095-4.095a1.647,1.647,0,1,0-2.322-2.335ZM53.2,15.254a1.648,1.648,0,0,0,1.161-.477l4.095-4.095a1.651,1.651,0,1,0-2.335-2.335l-4.095,4.095a1.645,1.645,0,0,0,0,2.335A1.676,1.676,0,0,0,53.2,15.254Zm-30.961-.489a1.647,1.647,0,1,0,2.322-2.335L20.471,8.336a1.651,1.651,0,0,0-2.335,2.335ZM54.366,42.243a1.651,1.651,0,1,0-2.335,2.335l4.095,4.095a1.647,1.647,0,0,0,2.322-2.335Z" transform="translate(-9.8 0)"/>
</svg>
