<svg id="Layer_2" data-name="Layer 2" xmlns="http://www.w3.org/2000/svg" width="81.661" height="58.457" viewBox="0 0 81.661 58.457">
  <defs>
    <style>
      .cls-1 {
        fill: #161616;
      }

      .cls-2 {
        fill: #129347;
      }
    </style>
  </defs>
  <g id="Layer_1" data-name="Layer 1">
    <path id="Path_28" data-name="Path 28" class="cls-1" d="M19.271,30.648,0,44.305V13.718L19.271,0Z"/>
    <path id="Path_29" data-name="Path 29" class="cls-1" d="M121.211,44.305,101.94,30.587V0l19.271,14.372Z" transform="translate(-81.851)"/>
    <path id="Path_30" data-name="Path 30" class="cls-1" d="M233.921,31.239,214.65,44.305V14.372L233.921,0Z" transform="translate(-172.349)"/>
    <path id="Path_31" data-name="Path 31" class="cls-1" d="M335.853,44.305,316.58,31.239V0l19.273,15.679Z" transform="translate(-254.192)"/>
    <rect id="Rectangle_3" data-name="Rectangle 3" class="cls-2" width="11.241" height="3.232" transform="translate(56.955 47.206) rotate(90)"/>
    <path id="Path_32" data-name="Path 32" class="cls-2" d="M197.452,239.54v4.641H192.08v6.6H200.7V239.548Zm0,9.28h-2.629v-2.686h2.635Z" transform="translate(-154.227 -192.334)"/>
    <path id="Path_33" data-name="Path 33" class="cls-2" d="M141.377,239.54H136.04v11.241h3.338v-8.6h2v8.6h3.338V239.54Z" transform="translate(-109.231 -192.334)"/>
    <rect id="Rectangle_4" data-name="Rectangle 4" class="cls-2" width="7.824" height="3.299" transform="translate(51.715 50.623) rotate(90)"/>
    <rect id="Rectangle_5" data-name="Rectangle 5" class="cls-2" width="2.162" height="3.299" transform="translate(51.713 47.206) rotate(90)"/>
    <path id="Path_34" data-name="Path 34" class="cls-2" d="M76.65,239.54v2.653h6.458v2H76.652v6.6h9.757V239.558H76.65Zm2.739,9.28v-2.686h3.719v2.678Z" transform="translate(-61.545 -192.334)"/>
    <path id="Path_35" data-name="Path 35" class="cls-2" d="M9.936,239.54H0v11.241H3.3v-8.6H5.343v8.6H7.966v-8.6H9.936v8.6h3.3V239.54Z" transform="translate(0 -192.334)"/>
    <path id="Path_36" data-name="Path 36" class="cls-2" d="M307.922,239.54H302v2.653h5.93v2H302v6.6h9.209V239.558Zm0,9.28h-3.194v-2.686h3.194Z" transform="translate(-242.485 -192.334)"/>
    <path id="Path_37" data-name="Path 37" class="cls-2" d="M370.815,242.183V239.54H361.55v6.6h6.574v2.044H361.55v2.6h9.264v-6.6h-6.7v-2Z" transform="translate(-290.3 -192.334)"/>
  </g>
</svg>
