<svg id="Layer_2" data-name="Layer 2" xmlns="http://www.w3.org/2000/svg" width="161.247" height="115.427" viewBox="0 0 161.247 115.427">
  <g id="Layer_1" data-name="Layer 1">
    <path id="Path_28" data-name="Path 28" d="M38.053,60.517,0,87.484v-60.4L38.053,0Z" fill="#fff"/>
    <path id="Path_29" data-name="Path 29" d="M139.993,87.484,101.94,60.4V0l38.053,28.379Z" transform="translate(-62.272)" fill="#fff"/>
    <path id="Path_30" data-name="Path 30" d="M252.7,61.685l-38.053,25.8v-59.1L252.7,0Z" transform="translate(-131.124)" fill="#fff"/>
    <path id="Path_31" data-name="Path 31" d="M354.636,87.484l-38.057-25.8V0l38.057,30.959Z" transform="translate(-193.39)" fill="#fff"/>
    <rect id="Rectangle_3" data-name="Rectangle 3" width="22.196" height="6.382" transform="translate(112.462 93.212) rotate(90)" fill="#fff"/>
    <path id="Path_32" data-name="Path 32" d="M202.688,239.54V248.7H192.08v13.032H209.1v-22.18Zm0,18.324H197.5v-5.3h5.2Z" transform="translate(-117.336 -146.328)" fill="#fff"/>
    <path id="Path_33" data-name="Path 33" d="M146.578,239.54H136.04v22.2h6.592V244.758h3.946v16.978h6.592v-22.2Z" transform="translate(-83.103 -146.328)" fill="#fff"/>
    <rect id="Rectangle_4" data-name="Rectangle 4" width="15.448" height="6.514" transform="translate(102.115 99.959) rotate(90)" fill="#fff"/>
    <rect id="Rectangle_5" data-name="Rectangle 5" width="4.269" height="6.514" transform="translate(102.111 93.212) rotate(90)" fill="#fff"/>
    <path id="Path_34" data-name="Path 34" d="M76.65,239.54v5.238H89.4v3.946H76.654v13.032H95.92v-22.18H76.65Zm5.409,18.324v-5.3H89.4v5.288Z" transform="translate(-46.823 -146.328)" fill="#fff"/>
    <path id="Path_35" data-name="Path 35" d="M19.62,239.54H0v22.2H6.518V244.758h4.031v16.978h5.179V244.758H19.62v16.978h6.518v-22.2Z" transform="translate(0 -146.328)" fill="#fff"/>
    <path id="Path_36" data-name="Path 36" d="M313.693,239.54H302v5.238h11.709v3.946H302v13.032h18.184v-22.18Zm0,18.324h-6.308v-5.3h6.308Z" transform="translate(-184.483 -146.328)" fill="#fff"/>
    <path id="Path_37" data-name="Path 37" d="M379.843,244.758V239.54H361.55v13.036h12.981v4.035H361.55v5.125h18.293V248.7H366.617v-3.946Z" transform="translate(-220.861 -146.328)" fill="#fff"/>
  </g>
</svg>
