<svg id="medal" xmlns="http://www.w3.org/2000/svg" width="21.906" height="21.906" viewBox="0 0 21.906 21.906">
  <g id="Group_1037" data-name="Group 1037" transform="translate(0)">
    <path id="Path_1368" data-name="Path 1368" d="M74.707,0A10.953,10.953,0,1,1,63.754,10.953,10.944,10.944,0,0,1,74.707,0" transform="translate(-63.754)" fill="#fcb912"/>
    <path id="Path_1369" data-name="Path 1369" d="M213.35,0h-.4a10.96,10.96,0,0,1,0,21.906h.4A10.953,10.953,0,0,0,213.35,0Z" transform="translate(-202.397)" fill="#f2a31e"/>
  </g>
  <g id="Group_1038" data-name="Group 1038" transform="translate(2.462 1.953)">
    <path id="Path_1370" data-name="Path 1370" d="M113.1,31.025a7.927,7.927,0,1,0,2.293,5.576,7.642,7.642,0,0,0-2.293-5.576M107.554,27.6a9.056,9.056,0,0,1,6.368,2.632,8.938,8.938,0,0,1,2.632,6.368,9.057,9.057,0,0,1-2.632,6.368,8.938,8.938,0,0,1-6.368,2.632,9.056,9.056,0,0,1-6.368-2.632A8.938,8.938,0,0,1,98.554,36.6a9.057,9.057,0,0,1,2.632-6.368A8.889,8.889,0,0,1,107.554,27.6Z" transform="translate(-98.554 -27.6)" fill="#f2a31e"/>
    <path id="Path_1371" data-name="Path 1371" d="M160.821,83.522l.849,2.6h2.745a.708.708,0,0,1,.425,1.274h0L162.6,89.013l.849,2.6a.73.73,0,0,1-.453.906.651.651,0,0,1-.679-.142L160.142,90.8l-2.208,1.613a.7.7,0,0,1-.991-.17.765.765,0,0,1-.113-.651h0l.849-2.6-2.236-1.613a.721.721,0,0,1-.17-.991.691.691,0,0,1,.623-.283h2.689l.849-2.6a.707.707,0,0,1,.906-.453.687.687,0,0,1,.481.481" transform="translate(-151.142 -79.078)" fill="#f2a31e"/>
  </g>
  <g id="Group_1039" data-name="Group 1039" transform="translate(1.953 1.953)">
    <path id="Path_1372" data-name="Path 1372" d="M105.93,31.025a7.927,7.927,0,1,0,2.293,5.576,7.871,7.871,0,0,0-2.293-5.576M100.354,27.6a9.056,9.056,0,0,1,6.368,2.632,8.938,8.938,0,0,1,2.632,6.368,9.057,9.057,0,0,1-2.632,6.368,8.938,8.938,0,0,1-6.368,2.632,9.056,9.056,0,0,1-6.368-2.632A8.938,8.938,0,0,1,91.354,36.6a9.057,9.057,0,0,1,2.632-6.368A8.938,8.938,0,0,1,100.354,27.6Z" transform="translate(-91.354 -27.6)" fill="#fcf8cf"/>
    <path id="Path_1373" data-name="Path 1373" d="M153.621,83.893l.849,2.6h2.745a.708.708,0,0,1,.425,1.274h0L155.4,89.384l.849,2.6a.73.73,0,0,1-.453.906.651.651,0,0,1-.679-.142L152.942,91.2l-2.208,1.613a.7.7,0,0,1-.991-.17.765.765,0,0,1-.113-.651h0l.849-2.6-2.236-1.613a.721.721,0,0,1-.17-.991.691.691,0,0,1,.623-.283h2.689l.849-2.6a.707.707,0,0,1,.906-.453.609.609,0,0,1,.481.453" transform="translate(-143.942 -79.45)" fill="#fcf8cf"/>
  </g>
</svg>
