<svg xmlns="http://www.w3.org/2000/svg" width="69.309" height="73.553" viewBox="0 0 69.309 73.553">
  <g id="pdf" transform="translate(-14.769)">
    <g id="Group_116" data-name="Group 116" transform="translate(14.769)">
      <g id="Group_115" data-name="Group 115">
        <path id="Path_102" data-name="Path 102" d="M83.683,19.9,64.944.434A1.415,1.415,0,0,0,63.925,0H36a5.674,5.674,0,0,0-5.668,5.666V25.461H19.01a4.245,4.245,0,0,0-4.241,4.24V50.925a4.245,4.245,0,0,0,4.241,4.24H30.328V67.9A5.669,5.669,0,0,0,36,73.553H78.41A5.667,5.667,0,0,0,84.078,67.9V20.886A1.415,1.415,0,0,0,83.683,19.9ZM64.276,3.819,79.658,19.8H64.276ZM19.01,52.336A1.413,1.413,0,0,1,17.6,50.925V29.7a1.413,1.413,0,0,1,1.412-1.411h38.2A1.413,1.413,0,0,1,58.618,29.7V50.925a1.413,1.413,0,0,1-1.412,1.411ZM81.249,67.9a2.835,2.835,0,0,1-2.84,2.824H36a2.837,2.837,0,0,1-2.84-2.827V55.164H57.206a4.245,4.245,0,0,0,4.241-4.24V29.7a4.245,4.245,0,0,0-4.241-4.24H33.157V5.666A2.842,2.842,0,0,1,36,2.829h25.45V21.217a1.415,1.415,0,0,0,1.414,1.414H81.249V67.9Z" transform="translate(-14.769)" fill="#cc2627"/>
      </g>
    </g>
    <g id="Group_118" data-name="Group 118" transform="translate(23.076 34.528)">
      <g id="Group_117" data-name="Group 117">
        <path id="Path_103" data-name="Path 103" d="M81.2,241.718a3.186,3.186,0,0,0-1.749-1.189,14.279,14.279,0,0,0-2.917-.182H72.6V252.5h2.453v-4.583h1.6a14,14,0,0,0,2.544-.174,3.555,3.555,0,0,0,1.272-.576,3.332,3.332,0,0,0,1.032-1.2,3.963,3.963,0,0,0,.406-1.881A3.773,3.773,0,0,0,81.2,241.718Zm-2.1,3.344a1.61,1.61,0,0,1-.767.6,6.343,6.343,0,0,1-1.939.191H75.049V242.4h1.185a11.781,11.781,0,0,1,1.765.083,1.7,1.7,0,0,1,.986.539,1.57,1.57,0,0,1,.39,1.094A1.633,1.633,0,0,1,79.1,245.062Z" transform="translate(-72.596 -240.346)" fill="#cc2627"/>
      </g>
    </g>
    <g id="Group_120" data-name="Group 120" transform="translate(34.389 34.528)">
      <g id="Group_119" data-name="Group 119">
        <path id="Path_104" data-name="Path 104" d="M161.134,243.665a5.309,5.309,0,0,0-1.16-1.968,4.064,4.064,0,0,0-1.832-1.119,8.755,8.755,0,0,0-2.312-.232h-4.484V252.5h4.616a7.418,7.418,0,0,0,2.171-.257,4.31,4.31,0,0,0,1.724-.97,5.358,5.358,0,0,0,1.3-2.147,7.985,7.985,0,0,0,.373-2.586A8.967,8.967,0,0,0,161.134,243.665Zm-2.387,4.989a2.571,2.571,0,0,1-.642,1.173,2.264,2.264,0,0,1-.99.506,6.679,6.679,0,0,1-1.484.116H153.8V242.4h1.1a11.112,11.112,0,0,1,2.014.116,2.334,2.334,0,0,1,1.135.572,2.78,2.78,0,0,1,.7,1.177,7.257,7.257,0,0,1,.249,2.163A7.926,7.926,0,0,1,158.747,248.655Z" transform="translate(-151.346 -240.346)" fill="#cc2627"/>
      </g>
    </g>
    <g id="Group_122" data-name="Group 122" transform="translate(46.672 34.528)">
      <g id="Group_121" data-name="Group 121">
        <path id="Path_105" data-name="Path 105" d="M245.175,242.4v-2.055h-8.329V252.5H239.3v-5.163h5.072v-2.055H239.3V242.4Z" transform="translate(-236.846 -240.346)" fill="#cc2627"/>
      </g>
    </g>
  </g>
</svg>
