<svg id="steering-wheel" xmlns="http://www.w3.org/2000/svg" width="46.959" height="46.959" viewBox="0 0 46.959 46.959">
  <g id="Group_103" data-name="Group 103" transform="translate(18.784 21.132)">
    <g id="Group_102" data-name="Group 102">
      <path id="Path_94" data-name="Path 94" d="M196.7,216a4.7,4.7,0,1,0,4.7,4.7A4.7,4.7,0,0,0,196.7,216Zm0,7.827a3.131,3.131,0,1,1,3.131-3.131A3.134,3.134,0,0,1,196.7,223.827Z" transform="translate(-192 -216)" fill="#129347"/>
    </g>
  </g>
  <g id="Group_105" data-name="Group 105">
    <g id="Group_104" data-name="Group 104">
      <path id="Path_95" data-name="Path 95" d="M23.48,0a23.48,23.48,0,1,0,23.48,23.48A23.506,23.506,0,0,0,23.48,0Zm0,45.394A21.914,21.914,0,1,1,45.394,23.48,21.939,21.939,0,0,1,23.48,45.394Z" fill="#129347"/>
    </g>
  </g>
  <g id="Group_107" data-name="Group 107" transform="translate(4.696 4.696)">
    <g id="Group_106" data-name="Group 106">
      <path id="Path_96" data-name="Path 96" d="M66.784,48A18.784,18.784,0,1,0,85.567,66.784,18.805,18.805,0,0,0,66.784,48Zm0,1.565A17.243,17.243,0,0,1,82.85,60.6l-5.864,1.955a8.457,8.457,0,0,1-6.124-.3,10.052,10.052,0,0,0-8.156,0l-.3.131a8.5,8.5,0,0,1-5.626.445l-6.271-1.672A17.245,17.245,0,0,1,66.784,49.565ZM49.565,66.784c0-.159.008-.317.012-.475l.544.181A20.867,20.867,0,0,1,64.265,83.816,17.244,17.244,0,0,1,49.565,66.784ZM66.784,84c-.311,0-.619-.009-.926-.026A22.427,22.427,0,0,0,50.616,65.005L49.7,64.7a17.117,17.117,0,0,1,.371-2.032l6.312,1.683a10.067,10.067,0,0,0,6.665-.526l.3-.131a8.484,8.484,0,0,1,6.887,0,10.021,10.021,0,0,0,7.253.349l5.864-1.955a17.084,17.084,0,0,1,.526,2.611l-.92.307A22.427,22.427,0,0,0,67.71,83.976C67.4,83.993,67.094,84,66.784,84Zm2.518-.186A20.867,20.867,0,0,1,83.446,66.489l.544-.181c0,.158.012.316.012.475A17.244,17.244,0,0,1,69.3,83.816Z" transform="translate(-48 -48)" fill="#129347"/>
    </g>
  </g>
</svg>
