<svg id="surface1" xmlns="http://www.w3.org/2000/svg" width="51.234" height="47.574" viewBox="0 0 51.234 47.574">
  <path id="Path_1335" data-name="Path 1335" d="M581.162,2.995a.915.915,0,0,1,.915-.915h10.979a.915.915,0,0,1,.915.915V7.569h1.83V2.995A2.745,2.745,0,0,0,593.055.25H582.077a2.745,2.745,0,0,0-2.745,2.745V7.569h1.83Zm0,0" transform="translate(-561.949 -0.25)"/>
  <path id="Path_1336" data-name="Path 1336" d="M30.191,791.1a4.574,4.574,0,0,1-9.149,0V788.04L0,778.781v21.47A2.745,2.745,0,0,0,2.745,803H48.489a2.745,2.745,0,0,0,2.745-2.745v-21.47L30.191,788.04Zm0,0" transform="translate(0 -755.421)"/>
  <path id="Path_1337" data-name="Path 1337" d="M762.277,975.965h5.489v1.83h-5.489Zm0,0" transform="translate(-739.405 -946.688)"/>
  <path id="Path_1338" data-name="Path 1338" d="M762.277,1100.674a2.745,2.745,0,0,0,5.489,0v-2.745h-5.489Zm1.83-.915h1.83v1.83h-1.83Zm0,0" transform="translate(-739.405 -1064.994)"/>
  <path id="Path_1339" data-name="Path 1339" d="M48.489,305.16H2.745A2.745,2.745,0,0,0,0,307.9v9.467l21.042,9.258v-2.257a.915.915,0,0,1,.915-.915h7.319a.915.915,0,0,1,.915.915v2.257l21.042-9.258V307.9A2.745,2.745,0,0,0,48.489,305.16Zm0,0" transform="translate(0 -296.011)"/>
</svg>
