<svg xmlns="http://www.w3.org/2000/svg" width="20.43" height="20.429" viewBox="0 0 20.43 20.429">
  <g id="twitter_1_" data-name="twitter (1)" transform="translate(20.43) rotate(90)">
    <ellipse id="Ellipse_9" data-name="Ellipse 9" cx="10.215" cy="10.215" rx="10.215" ry="10.215" transform="translate(0 0)" fill="#fff"/>
    <g id="Group_2" data-name="Group 2" transform="translate(4.571 6.196)">
      <path id="Path_38" data-name="Path 38" d="M37,35.173a4.871,4.871,0,0,1-1.4.384,2.448,2.448,0,0,0,1.074-1.351,4.888,4.888,0,0,1-1.55.592,2.444,2.444,0,0,0-4.161,2.227,6.931,6.931,0,0,1-5.033-2.551,2.444,2.444,0,0,0,.755,3.26,2.424,2.424,0,0,1-1.106-.306c0,.01,0,.021,0,.031a2.443,2.443,0,0,0,1.959,2.394,2.451,2.451,0,0,1-1.1.042,2.444,2.444,0,0,0,2.281,1.7A4.929,4.929,0,0,1,25.1,42.6a6.944,6.944,0,0,0,10.689-5.85c0-.106,0-.211-.007-.316A4.951,4.951,0,0,0,37,35.173Z" transform="translate(-25.103 -34.028)" fill="#129347"/>
    </g>
  </g>
</svg>
