<svg id="twitter_1_" data-name="twitter (1)" xmlns="http://www.w3.org/2000/svg" width="42.097" height="42.097" viewBox="0 0 42.097 42.097">
  <ellipse id="Ellipse_9" data-name="Ellipse 9" cx="21.048" cy="21.049" rx="21.048" ry="21.049" transform="translate(0 0)" fill="#fff"/>
  <g id="Group_2" data-name="Group 2" transform="translate(9.418 12.768)">
    <path id="Path_38" data-name="Path 38" d="M49.626,36.387a10.038,10.038,0,0,1-2.89.791A5.045,5.045,0,0,0,48.948,34.4a10.072,10.072,0,0,1-3.195,1.221,5.035,5.035,0,0,0-8.573,4.59,14.282,14.282,0,0,1-10.37-5.257,5.037,5.037,0,0,0,1.557,6.717,5,5,0,0,1-2.279-.63c0,.021,0,.043,0,.064a5.034,5.034,0,0,0,4.036,4.933,5.051,5.051,0,0,1-2.272.087,5.036,5.036,0,0,0,4.7,3.494A10.156,10.156,0,0,1,25.1,51.7,14.308,14.308,0,0,0,47.129,39.642c0-.218,0-.435-.015-.651a10.2,10.2,0,0,0,2.511-2.6Z" transform="translate(-25.103 -34.028)" fill="#363636"/>
  </g>
</svg>
