<svg xmlns="http://www.w3.org/2000/svg" width="34" height="34" viewBox="0 0 34 34">
  <g id="Group_1016" data-name="Group 1016" transform="translate(-1280 -23)">
    <g id="Ellipse_14" data-name="Ellipse 14" transform="translate(1280 23)" fill="rgba(211,211,211,0)" stroke="#313131" stroke-width="1">
      <circle cx="17" cy="17" r="17" stroke="none"/>
      <circle cx="17" cy="17" r="16.5" fill="none"/>
    </g>
    <g id="shopping-cart" transform="translate(1286.987 12.103)">
      <g id="Group_76" data-name="Group 76" transform="translate(6.286 33.332)">
        <g id="Group_75" data-name="Group 75">
          <path id="Path_88" data-name="Path 88" d="M171.325,402.828a1.669,1.669,0,1,0,1.669,1.669A1.67,1.67,0,0,0,171.325,402.828Zm0,2.405a.737.737,0,1,1,.737-.737A.738.738,0,0,1,171.325,405.233Z" transform="translate(-169.656 -402.828)" fill="#242424"/>
        </g>
      </g>
      <g id="Group_78" data-name="Group 78" transform="translate(12.139 33.332)">
        <g id="Group_77" data-name="Group 77">
          <path id="Path_89" data-name="Path 89" d="M329.27,402.828a1.669,1.669,0,1,0,1.669,1.669A1.67,1.67,0,0,0,329.27,402.828Zm0,2.405a.737.737,0,1,1,.737-.737A.738.738,0,0,1,329.27,405.233Z" transform="translate(-327.601 -402.828)" fill="#242424"/>
        </g>
      </g>
      <g id="Group_80" data-name="Group 80" transform="translate(7.077 24.548)">
        <g id="Group_79" data-name="Group 79" transform="translate(0 0)">
          <path id="Path_90" data-name="Path 90" d="M198.137,165.755h-6.675a.466.466,0,0,0,0,.932h6.675a.466.466,0,0,0,0-.932Z" transform="translate(-190.996 -165.755)" fill="#242424"/>
        </g>
      </g>
      <g id="Group_82" data-name="Group 82" transform="translate(7.44 26.967)">
        <g id="Group_81" data-name="Group 81" transform="translate(0 0)">
          <path id="Path_91" data-name="Path 91" d="M207.217,231.035h-5.949a.466.466,0,1,0,0,.932h5.949a.466.466,0,0,0,0-.932Z" transform="translate(-200.802 -231.035)" fill="#242424"/>
        </g>
      </g>
      <g id="Group_84" data-name="Group 84" transform="translate(0 19.114)">
        <g id="Group_83" data-name="Group 83" transform="translate(0 0)">
          <path id="Path_92" data-name="Path 92" d="M18.762,22.472a.928.928,0,0,0-.722-.343H3.53l-.293-1.422A.933.933,0,0,0,2.7,20.04L.651,19.153a.466.466,0,0,0-.371.855l2.045.888L4.578,31.836a.935.935,0,0,0,.912.744h11.16a.466.466,0,0,0,0-.932H5.491l-.274-1.331h11.52a.935.935,0,0,0,.912-.744l1.3-6.324A.928.928,0,0,0,18.762,22.472Zm-2.025,6.913H5.025l-1.3-6.324H18.04Z" transform="translate(0 -19.114)" fill="#242424"/>
        </g>
      </g>
    </g>
  </g>
</svg>
